<svg width="64" height="64" viewBox="0 0 64 64" fill="none" xmlns="http://www.w3.org/2000/svg">
<g clip-path="url(#clip0_19_47)">
<path fill-rule="evenodd" clip-rule="evenodd" d="M31.9047 0C14.2622 0 0 14.6667 0 32.8113C0 47.3153 9.13828 59.5927 21.8155 63.938C23.4005 64.2647 23.9811 63.232 23.9811 62.3633C23.9811 61.6027 23.9288 58.9953 23.9288 56.2787C15.0537 58.2347 13.2056 52.3673 13.2056 52.3673C11.7793 48.5647 9.66596 47.5873 9.66596 47.5873C6.76114 45.5773 9.87755 45.5773 9.87755 45.5773C13.0998 45.7947 14.7905 48.9453 14.7905 48.9453C17.6425 53.9427 22.238 52.5307 24.0869 51.6613C24.3507 49.5427 25.1964 48.076 26.0944 47.2613C19.0158 46.5007 11.5683 43.676 11.5683 31.0727C11.5683 27.4873 12.8353 24.554 14.8428 22.2727C14.526 21.458 13.4165 18.0893 15.1602 13.5807C15.1602 13.5807 17.854 12.7113 23.9282 16.9487C26.5287 16.2304 29.2106 15.8651 31.9047 15.862C34.5985 15.862 37.3447 16.2427 39.8805 16.9487C45.9553 12.7113 48.6491 13.5807 48.6491 13.5807C50.3928 18.0893 49.2826 21.458 48.9659 22.2727C51.0263 24.554 52.241 27.4873 52.241 31.0727C52.241 43.676 44.7935 46.446 37.662 47.2613C38.8245 48.2933 39.8276 50.2487 39.8276 53.3453C39.8276 57.7453 39.7753 61.2767 39.7753 62.3627C39.7753 63.232 40.3566 64.2647 41.9409 63.9387C54.6181 59.592 63.7564 47.3153 63.7564 32.8113C63.8087 14.6667 49.4942 0 31.9047 0Z" fill="#0C2442"/>
</g>
<defs>
<clipPath id="clip0_19_47">
<rect width="64" height="64" fill="white"/>
</clipPath>
</defs>
</svg>
