<svg width="63" height="53" viewBox="0 0 63 53" fill="none" xmlns="http://www.w3.org/2000/svg">
<g clip-path="url(#clip0_238_17)">
<path d="M0 6.22916V4.41667C0 3.24529 0.414843 2.1219 1.15327 1.29361C1.89169 0.465326 2.89321 0 3.9375 0L59.0625 0C60.1068 0 61.1083 0.465326 61.8467 1.29361C62.5852 2.1219 63 3.24529 63 4.41667V6.22916L31.5 28.3125L0 6.22916ZM32.5434 32.7899C32.2305 33.009 31.8689 33.1252 31.5 33.1252C31.1311 33.1252 30.7695 33.009 30.4566 32.7899L0 11.4375V48.5833C0 49.7547 0.414843 50.8781 1.15327 51.7064C1.89169 52.5347 2.89321 53 3.9375 53H59.0625C60.1068 53 61.1083 52.5347 61.8467 51.7064C62.5852 50.8781 63 49.7547 63 48.5833V11.4375L32.5434 32.7899Z" fill="#0C2442"/>
</g>
<defs>
<clipPath id="clip0_238_17">
<rect width="63" height="53" fill="white"/>
</clipPath>
</defs>
</svg>
