<svg width="64" height="64" viewBox="0 0 64 64" fill="none" xmlns="http://www.w3.org/2000/svg">
<path d="M32 0C14.328 0 0 14.328 0 32C0 49.672 14.328 64 32 64C49.672 64 64 49.672 64 32C64 14.328 49.672 0 32 0ZM19.9893 14.408C22.2347 14.408 23.7307 15.904 23.7307 17.8987C23.7307 19.8933 22.2347 21.3893 19.7413 21.3893C17.496 21.392 16 19.8933 16 17.8987C16 15.904 17.496 14.408 19.9893 14.408ZM24 45.3333H16V24H24V45.3333ZM50.6667 45.3333H43.136V33.6747C43.136 30.4507 41.128 29.7067 40.376 29.7067C39.624 29.7067 37.112 30.2027 37.112 33.6747C37.112 34.1707 37.112 45.3333 37.112 45.3333H29.3333V24H37.1147V26.976C38.1173 25.24 40.1253 24 43.8907 24C47.656 24 50.6667 26.976 50.6667 33.6747V45.3333Z" fill="#0C2442"/>
</svg>
