<svg width="63" height="64" viewBox="0 0 63 64" fill="none" xmlns="http://www.w3.org/2000/svg">
<path d="M31.5 0C14.1041 0 0 14.328 0 32C0 49.672 14.1041 64 31.5 64C48.8959 64 63 49.672 63 32C63 14.328 48.8959 0 31.5 0ZM19.677 14.408C21.8873 14.408 23.3599 15.904 23.3599 17.8987C23.3599 19.8933 21.8872 21.3893 19.4329 21.3893C17.2226 21.392 15.75 19.8933 15.75 17.8987C15.75 15.904 17.2226 14.408 19.677 14.408ZM23.625 45.3333H15.75V24H23.625V45.3333ZM49.875 45.3333H42.462V33.6747C42.462 30.4507 40.4854 29.7067 39.7451 29.7067C39.0049 29.7067 36.5321 30.2027 36.5321 33.6747C36.5321 34.1707 36.5321 45.3333 36.5321 45.3333H28.875V24H36.5347V26.976C37.5217 25.24 39.4984 24 43.2049 24C46.9114 24 49.875 26.976 49.875 33.6747V45.3333Z" fill="white"/>
</svg>
